<svg width="21" height="21" viewBox="0 0 21 21" fill="none" xmlns="http://www.w3.org/2000/svg">
<path d="M18.8528 6.94709C18.6066 6.70104 18.2729 6.56281 17.9248 6.56281C17.5768 6.56281 17.243 6.70104 16.9969 6.94709L10.5 13.444L4.00315 6.94709C3.75561 6.70801 3.42407 6.57572 3.07994 6.57871C2.7358 6.5817 2.40661 6.71973 2.16326 6.96308C1.91992 7.20643 1.78188 7.53562 1.77889 7.87975C1.7759 8.22389 1.90819 8.55543 2.14728 8.80297L9.57209 16.2278C9.81822 16.4738 10.152 16.6121 10.5 16.6121C10.8481 16.6121 11.1818 16.4738 11.428 16.2278L18.8528 8.80297C19.0988 8.55684 19.2371 8.22306 19.2371 7.87503C19.2371 7.527 19.0988 7.19322 18.8528 6.94709Z" fill="#94A3B8"/>
</svg>
