<svg width="19" height="11" viewBox="0 0 19 11" fill="none" xmlns="http://www.w3.org/2000/svg">
<path d="M1.14722 10.0529C1.39335 10.299 1.72713 10.4372 2.07516 10.4372C2.42319 10.4372 2.75697 10.299 3.0031 10.0529L9.49997 3.55603L15.9968 10.0529C16.2444 10.292 16.5759 10.4243 16.9201 10.4213C17.2642 10.4183 17.5934 10.2803 17.8367 10.0369C18.0801 9.79357 18.2181 9.46438 18.2211 9.12025C18.2241 8.77611 18.0918 8.44457 17.8527 8.19703L10.4279 0.772222C10.1818 0.526166 9.848 0.387939 9.49997 0.387939C9.15194 0.387939 8.81816 0.526166 8.57204 0.772222L1.14722 8.19703C0.901166 8.44316 0.762939 8.77694 0.762939 9.12497C0.762939 9.473 0.901166 9.80678 1.14722 10.0529Z" fill="#94A3B8"/>
</svg>
