<svg width="32" height="32" viewBox="0 0 32 32" fill="none" xmlns="http://www.w3.org/2000/svg">
<path d="M16 30C18.7689 30 21.4757 29.1789 23.778 27.6406C26.0803 26.1022 27.8747 23.9157 28.9343 21.3576C29.9939 18.7994 30.2712 15.9845 29.731 13.2687C29.1908 10.553 27.8574 8.05844 25.8995 6.10051C23.9416 4.14257 21.447 2.8092 18.7313 2.26901C16.0155 1.72882 13.2006 2.00607 10.6424 3.06569C8.08426 4.12532 5.89776 5.91973 4.35943 8.22202C2.82109 10.5243 2 13.2311 2 16C2 18.24 2.52578 20.3555 3.46222 22.2331C4.16689 23.6502 3.18689 25.562 2.81356 26.9573C2.73085 27.2659 2.73083 27.5909 2.81351 27.8995C2.8962 28.2081 3.05866 28.4895 3.28458 28.7154C3.51049 28.9413 3.7919 29.1038 4.10051 29.1865C4.40912 29.2692 4.73406 29.2691 5.04267 29.1864C6.438 28.8131 8.34978 27.8331 9.76689 28.5393C11.7032 29.503 13.8371 30.0031 16 30Z" stroke="white" stroke-width="2.5" stroke-linecap="round" stroke-linejoin="round"/>
</svg>
