<svg width="22" height="22" viewBox="0 0 22 22" fill="none" xmlns="http://www.w3.org/2000/svg">
<path d="M19.8695 0.54422L11 9.41372L2.13052 0.54422C1.9172 0.349008 1.63678 0.243629 1.34769 0.250035C1.0586 0.25644 0.783127 0.374137 0.578658 0.578605C0.374189 0.783074 0.256493 1.05855 0.250087 1.34764C0.243682 1.63673 0.349061 1.91715 0.544273 2.13047L9.40927 11L0.542023 19.8672C0.433691 19.9705 0.347091 20.0943 0.287313 20.2315C0.227536 20.3687 0.195787 20.5165 0.193934 20.6661C0.192081 20.8157 0.22016 20.9642 0.276522 21.1029C0.332883 21.2415 0.416389 21.3674 0.522131 21.4733C0.627873 21.5792 0.753717 21.6629 0.892266 21.7195C1.03081 21.776 1.17927 21.8043 1.32891 21.8027C1.47855 21.801 1.62635 21.7695 1.76363 21.7099C1.9009 21.6503 2.02488 21.5639 2.12827 21.4557L11 12.5885L19.8695 21.458C20.0828 21.6532 20.3633 21.7586 20.6524 21.7522C20.9414 21.7458 21.2169 21.6281 21.4214 21.4236C21.6259 21.2191 21.7436 20.9436 21.75 20.6546C21.7564 20.3655 21.651 20.085 21.4558 19.8717L12.5863 11.0022L21.4558 2.13047C21.5641 2.02723 21.6507 1.90337 21.7105 1.76618C21.7703 1.62899 21.802 1.48124 21.8039 1.3316C21.8057 1.18196 21.7776 1.03347 21.7213 0.894838C21.6649 0.756209 21.5814 0.630247 21.4757 0.524355C21.3699 0.418463 21.2441 0.334778 21.1055 0.27822C20.967 0.221662 20.8185 0.193373 20.6689 0.195014C20.5192 0.196655 20.3714 0.228194 20.2342 0.287777C20.0969 0.34736 19.9729 0.433784 19.8695 0.54197V0.54422Z" fill="#CBD5E1"/>
</svg>
