<svg width="37" height="37" viewBox="0 0 37 37" fill="none" xmlns="http://www.w3.org/2000/svg">
<path fill-rule="evenodd" clip-rule="evenodd" d="M7.70834 16.9583C7.70834 15.7436 7.9476 14.5408 8.41245 13.4185C8.87731 12.2962 9.55866 11.2765 10.4176 10.4176C11.2765 9.55865 12.2963 8.8773 13.4185 8.41245C14.5408 7.94759 15.7436 7.70833 16.9583 7.70833C18.1731 7.70833 19.3759 7.94759 20.4982 8.41245C21.6204 8.8773 22.6401 9.55865 23.4991 10.4176C24.358 11.2765 25.0394 12.2962 25.5042 13.4185C25.9691 14.5408 26.2083 15.7436 26.2083 16.9583C26.2083 19.4116 25.2338 21.7644 23.4991 23.4991C21.7644 25.2338 19.4116 26.2083 16.9583 26.2083C14.5051 26.2083 12.1523 25.2338 10.4176 23.4991C8.68289 21.7644 7.70834 19.4116 7.70834 16.9583ZM16.9583 4.625C14.9956 4.62528 13.0612 5.094 11.3161 5.99221C9.57088 6.89042 8.06528 8.19217 6.92438 9.78928C5.78348 11.3864 5.04023 13.2327 4.7564 15.1749C4.47258 17.117 4.65637 19.0988 5.29251 20.9556C5.92865 22.8124 6.99876 24.4906 8.41391 25.8507C9.82906 27.2107 11.5484 28.2134 13.429 28.7754C15.3096 29.3373 17.2971 29.4423 19.2264 29.0816C21.1558 28.721 22.9712 27.905 24.5218 26.7017L29.7434 31.9233C30.0341 32.2041 30.4236 32.3595 30.8278 32.356C31.232 32.3525 31.6187 32.1903 31.9045 31.9045C32.1904 31.6187 32.3525 31.232 32.356 30.8278C32.3595 30.4236 32.2041 30.0341 31.9233 29.7434L26.7017 24.5217C28.1171 22.6987 28.9925 20.515 29.2284 18.2191C29.4644 15.9231 29.0513 13.607 28.0363 11.5342C27.0212 9.46137 25.4449 7.71495 23.4865 6.49354C21.5282 5.27213 19.2664 4.62474 16.9583 4.625ZM16.9583 23.125C18.5938 23.125 20.1624 22.4753 21.3188 21.3188C22.4753 20.1624 23.125 18.5938 23.125 16.9583C23.125 15.3228 22.4753 13.7543 21.3188 12.5978C20.1624 11.4414 18.5938 10.7917 16.9583 10.7917C15.3228 10.7917 13.7543 11.4414 12.5978 12.5978C11.4414 13.7543 10.7917 15.3228 10.7917 16.9583C10.7917 18.5938 11.4414 20.1624 12.5978 21.3188C13.7543 22.4753 15.3228 23.125 16.9583 23.125Z" fill="white"/>
</svg>
