<svg width="101" height="95" viewBox="0 0 101 95" fill="none" xmlns="http://www.w3.org/2000/svg">
<path d="M9.20304 44.4055C7.42312 44.4055 5.94293 43.8227 4.76249 42.657C3.57834 41.4914 2.98627 40.0186 2.98627 38.2387C2.98627 36.4588 3.56909 34.9786 4.73474 33.7981C5.90038 32.614 7.37316 32.0219 9.15308 32.0219C10.933 32.0219 12.415 32.6047 13.5992 33.7704C14.7833 34.9323 15.3754 36.4051 15.3754 38.1887C15.3754 39.9723 14.7926 41.4525 13.6269 42.6293C12.4613 43.8134 10.9867 44.4055 9.20304 44.4055ZM4.26848 95V72.7973H0V49.9562H18.3617V72.7973H14.0876V89.4493H64.6877V55.5069H52.1987C47.1253 55.5069 42.8513 53.7862 39.3766 50.3447C35.8981 46.9033 34.1589 42.8235 34.1589 38.1055C34.1589 34.0572 35.4245 30.3974 37.9556 27.1262C40.483 23.855 43.7209 21.3664 47.6693 19.6605C47.9061 13.7879 50.0468 9.04392 54.0914 5.42857C58.1397 1.80952 62.5969 0 67.463 0C72.3291 0 76.7863 1.80952 80.8346 5.42857C84.8792 9.04392 87.0181 13.7879 87.2512 19.6605C91.2033 21.3664 94.4431 23.855 96.9705 27.1262C99.5016 30.3974 100.767 34.0572 100.767 38.1055C100.767 42.8235 99.0279 46.9033 95.5495 50.3447C92.0748 53.7862 87.8008 55.5069 82.7274 55.5069H70.2384V89.4493H97.9918V95H4.26848Z" fill="white"/>
</svg>
