<svg width="70" height="93" viewBox="0 0 70 93" fill="none" xmlns="http://www.w3.org/2000/svg">
<path d="M64.4702 51.9338C65.1589 53.9081 65.3641 56.0187 65.0684 58.0886C64.7727 60.1585 63.9848 62.1273 62.7708 63.8297C61.5615 65.5281 59.9635 66.9127 58.1101 67.8678C56.2567 68.8229 54.2018 69.3209 52.1168 69.3201H17.0829C14.9979 69.3209 12.943 68.8229 11.0897 67.8678C9.23629 66.9127 7.63827 65.5281 6.42898 63.8297C5.21499 62.1273 4.42709 60.1585 4.13139 58.0886C3.83569 56.0187 4.04082 53.9081 4.72957 51.9338L17.2137 16.3117C18.4807 12.7123 20.8337 9.59484 23.9479 7.38959C27.0621 5.18434 30.784 4 34.5999 4C38.4158 4 42.1377 5.18434 45.2519 7.38959C48.366 9.59484 50.719 12.7123 51.9861 16.3117L64.4702 51.9338Z" stroke="white" stroke-width="8" stroke-linecap="round" stroke-linejoin="round"/>
<path d="M24.7956 43.1754L34.5999 52.9796M34.5999 52.9796V88.9286M34.5999 52.9796L44.4041 43.1754" stroke="white" stroke-width="8" stroke-linecap="round" stroke-linejoin="round"/>
</svg>
