<svg width="83" height="97" viewBox="0 0 83 97" fill="none" xmlns="http://www.w3.org/2000/svg">
<path d="M41.5 28.6183C52.3911 20.8137 65.6219 16.9647 79 17.7092V41.5729C79 51.5185 75.0491 61.0567 68.0165 68.0894C60.9839 75.122 51.4456 79.0729 41.5 79.0729C31.5544 79.0729 22.0161 75.122 14.9835 68.0894C7.95088 61.0567 4 51.5185 4 41.5729V17.7092C4 17.7092 48.7273 12.3229 69.1818 66.8683" stroke="white" stroke-width="8" stroke-linecap="round" stroke-linejoin="round"/>
<path d="M61.3409 19.4819C60.2324 15.0591 57.678 11.1335 54.0832 8.32847C50.4885 5.52348 46.0596 4 41.5 4C36.9404 4 32.5115 5.52348 28.9167 8.32847C25.322 11.1335 22.7676 15.0591 21.6591 19.4819M41.5 79.0729V92.7092" stroke="white" stroke-width="8" stroke-linecap="round" stroke-linejoin="round"/>
</svg>
